@startuml "Classes"

top to bottom direction

class Teste{
  
}

class Alerta <<abstract>> {
  + ajustar(horAbs)
  constructor(desc, horAbs)
}
note left of Alerta : Alerta programado.\n\nPossui uma descrição que é\nexibida com a conclusão do\ntimer, na forma de um alerta.

class AlertaRelativo {
  constructor(desc, horExpr)
  + ajustar(horExpr)
  + string: getTempoRestante()
}



class Teste {
  + ajustar1
}

Alerta <|-- AlertaRelativo
Alerta <|-- AlertaAbsoluto

@enduml
